<?xml version="1.0" encoding="UTF-8"?>
<svg width="512" height="512" viewBox="0 0 512 512" fill="none" xmlns="http://www.w3.org/2000/svg">
  <!-- 背景圆形 -->
  <circle cx="256" cy="256" r="248" fill="#4CAF50" fill-opacity="0.1" stroke="#4CAF50" stroke-width="16"/>
  
  <!-- 餐盘 -->
  <path d="M256 140C178.203 140 115 203.203 115 281C115 358.797 178.203 422 256 422C333.797 422 397 358.797 397 281C397 203.203 333.797 140 256 140ZM256 402C189.262 402 135 347.738 135 281C135 214.262 189.262 160 256 160C322.738 160 377 214.262 377 281C377 347.738 322.738 402 256 402Z" 
    fill="#4CAF50"/>
  
  <!-- 叶子装饰 -->
  <path d="M256 90C187.635 90 126.267 127.293 90 183.465C106.466 134.293 147.635 90 197.635 90C247.635 90 290 120 300 170C310 120 352.365 90 402.365 90C452.365 90 493.534 134.293 510 183.465C473.733 127.293 412.365 90 344 90H256Z" 
    fill="#4CAF50"/>
  
  <!-- 餐具 -->
  <path d="M230 220V350M282 220V350" 
    stroke="#4CAF50" 
    stroke-width="20" 
    stroke-linecap="round"/>
  
  <!-- 小圆点装饰 -->
  <circle cx="230" cy="260" r="8" fill="#4CAF50"/>
  <circle cx="282" cy="260" r="8" fill="#4CAF50"/>
  <circle cx="230" cy="310" r="8" fill="#4CAF50"/>
  <circle cx="282" cy="310" r="8" fill="#4CAF50"/>
</svg> 